# xmcd
#
# Track frame offsets:
#	150
#	27961
#	49899
#	72827
#	90962
#	116671
#	149976
#
# Disc length: 2272 seconds
#
# Revision: 17
# Processed by: cddbd v1.5.2PL0 Copyright (c) Steve Scherf et al.
# Submitted via: Jack! The Knife 20 Magnifico
#
DISCID=6208de07
DTITLE=Deep Purple - Machine Head
DYEAR=1972
DGENRE=Hard Rock
TTITLE0=Highway Star
TTITLE1=Maybe I'm A Leo
TTITLE2=Pictures Of Home
TTITLE3=Never Before
TTITLE4=Smoke On The Water
TTITLE5=Lazy
TTITLE6=Space Truckin'
EXTD=Deep Purple
EXTT0=Blackmore, Gillan, Glover, Lord, Paice
EXTT1=Blackmore, Gillan, Glover, Lord, Paice
EXTT2=Blackmore, Gillan, Glover, Lord, Paice
EXTT3=Blackmore, Gillan, Glover, Lord, Paice
EXTT4=Blackmore, Gillan, Glover, Lord, Paice
EXTT5=Blackmore, Gillan, Glover, Lord, Paice
EXTT6=Blackmore, Gillan, Glover, Lord, Paice
PLAYORDER=
